<svg xmlns="http://www.w3.org/2000/svg" version="1.1" xmlns:xlink="http://www.w3.org/1999/xlink" xmlns:svgjs="http://svgjs.com/svgjs" width="2560" height="1125" preserveAspectRatio="none" viewBox="0 0 2560 1125"><g mask="url(&quot;#SvgjsMask1000&quot;)" fill="none"><rect width="2560" height="1125" x="0" y="0" fill="rgba(41, 138, 245, 0.43)"></rect><path d="M 0,104 C 102.4,190.8 307.2,504.2 512,538 C 716.8,571.8 819.2,270.6 1024,273 C 1228.8,275.4 1331.2,557.2 1536,550 C 1740.8,542.8 1843.2,262.4 2048,237 C 2252.8,211.6 2457.6,385.8 2560,423L2560 1125L0 1125z" fill="rgba(176, 46, 247, 0.49)"></path><path d="M 0,1080 C 170.8,999.2 512.4,722.4 854,676 C 1195.6,629.6 1366.8,848.8 1708,848 C 2049.2,847.2 2389.6,707.2 2560,672L2560 1125L0 1125z" fill="rgba(239, 122, 197, 0.32)"></path></g><defs><mask id="SvgjsMask1000"><rect width="2560" height="1125" fill="#ffffff"></rect></mask></defs></svg>